<svg xmlns="http://www.w3.org/2000/svg" version="1.1" xmlns:xlink="http://www.w3.org/1999/xlink" width="512" height="512" x="0" y="0" viewBox="0 0 512 512" style="enable-background:new 0 0 512 512" xml:space="preserve" class=""><g><path fill="#ad7fdd" d="M318.2 236.17H193.8L82.698 447.489c-3.318 6.312.522 14.02 7.559 15.172l44.68 7.315a20.887 20.887 0 0 1 11.697 6.15l31.355 32.66c4.939 5.144 13.466 3.938 16.784-2.374L256 389.956l61.227 116.457c3.318 6.312 11.845 7.518 16.784 2.374l31.355-32.66a20.9 20.9 0 0 1 11.697-6.15l44.68-7.315c7.037-1.152 10.878-8.86 7.559-15.172z" opacity="1" data-original="#ad7fdd" class=""></path><path fill="#9d66d6" d="M394.347 381.003 318.2 236.17H193.8l-76.147 144.834c6.062 4.61 13.509 7.181 21.198 7.181a34.935 34.935 0 0 0 9.547-1.33c3.898 15.484 17.77 26.444 34.002 26.442a34.75 34.75 0 0 0 17.904-4.944c6.15 10.983 17.87 17.937 30.604 17.936 2.132 0 4.236-.203 6.294-.577L256 389.956l18.798 35.755c2.059.375 4.164.577 6.297.577 12.734-.001 24.452-6.955 30.601-17.936a34.742 34.742 0 0 0 17.907 4.944c16.228 0 30.099-10.958 33.998-26.442a34.885 34.885 0 0 0 9.55 1.33c7.689 0 15.135-2.572 21.196-7.181z" opacity="1" data-original="#9d66d6" class=""></path><path fill="#f7e365" d="m263.494 15.8 10.127-12.267c4.568-5.534 13.353-4.377 16.333 2.15l6.607 14.47c2.536 5.554 9.504 7.421 14.477 3.879l12.957-9.228c5.845-4.163 14.031-.772 15.22 6.304l2.637 15.687c1.012 6.021 7.26 9.628 12.98 7.494l14.904-5.56c6.723-2.508 13.753 2.886 13.07 10.029l-1.513 15.835c-.581 6.077 4.52 11.179 10.598 10.598l15.835-1.513c7.143-.683 12.537 6.347 10.029 13.07l-5.56 14.904c-2.134 5.72 1.473 11.968 7.494 12.98l15.687 2.637c7.077 1.189 10.467 9.375 6.304 15.22l-9.228 12.957c-3.542 4.973-1.674 11.941 3.879 14.477l14.47 6.607c6.528 2.98 7.684 11.765 2.15 16.333l-12.267 10.127c-4.708 3.887-4.708 11.101 0 14.988l12.267 10.127c5.534 4.568 4.377 13.353-2.15 16.333l-14.47 6.607c-5.554 2.536-7.421 9.504-3.879 14.477l9.228 12.957c4.163 5.845.772 14.031-6.304 15.22l-15.687 2.637c-6.021 1.012-9.628 7.26-7.494 12.98l5.56 14.904c2.508 6.723-2.886 13.753-10.029 13.07l-15.835-1.513c-6.077-.581-11.179 4.52-10.598 10.598l1.513 15.835c.683 7.143-6.347 12.537-13.07 10.029l-14.904-5.56c-5.72-2.134-11.968 1.473-12.98 7.494l-2.637 15.687c-1.189 7.077-9.375 10.467-15.22 6.304l-12.957-9.228c-4.973-3.542-11.941-1.674-14.477 3.879l-6.607 14.47c-2.98 6.528-11.765 7.684-16.333 2.15l-10.127-12.267c-3.887-4.708-11.101-4.708-14.988 0l-10.127 12.267c-4.568 5.534-13.353 4.377-16.333-2.15l-6.607-14.47c-2.536-5.554-9.504-7.421-14.477-3.879l-12.957 9.228c-5.845 4.163-14.031.772-15.22-6.304l-2.637-15.687c-1.012-6.021-7.26-9.628-12.98-7.494l-14.904 5.56c-6.723 2.508-13.753-2.886-13.07-10.029l1.513-15.835c.581-6.077-4.52-11.179-10.598-10.598l-15.835 1.513c-7.143.683-12.537-6.347-10.029-13.07l5.56-14.904c2.134-5.72-1.473-11.968-7.494-12.98l-15.687-2.637c-7.077-1.189-10.467-9.375-6.304-15.22l9.228-12.957c3.542-4.973 1.674-11.941-3.879-14.477l-14.47-6.607c-6.528-2.98-7.684-11.765-2.15-16.333l12.267-10.127c4.708-3.887 4.708-11.101 0-14.988L59.05 182.862c-5.534-4.568-4.377-13.353 2.15-16.333l14.47-6.607c5.554-2.536 7.421-9.504 3.879-14.477l-9.228-12.957c-4.163-5.845-.772-14.031 6.304-15.22l15.687-2.637c6.021-1.012 9.628-7.26 7.494-12.98l-5.56-14.904c-2.508-6.723 2.886-13.753 10.029-13.07l15.835 1.513c6.077.581 11.179-4.52 10.598-10.598l-1.513-15.835c-.683-7.143 6.347-12.537 13.07-10.029l14.904 5.56c5.72 2.134 11.968-1.473 12.98-7.494l2.637-15.687c1.189-7.077 9.375-10.467 15.22-6.304l12.957 9.228c4.973 3.542 11.941 1.674 14.477-3.879l6.607-14.47c2.98-6.528 11.765-7.684 16.333-2.15L248.506 15.8c3.887 4.708 11.101 4.708 14.988 0z" opacity="1" data-original="#f7e365" class=""></path><path fill="#f3d332" d="m452.95 218.103-12.267-10.127c-4.708-3.887-4.708-11.101 0-14.987l12.267-10.127c5.534-4.568 4.377-13.353-2.15-16.333l-14.47-6.607c-5.554-2.536-7.421-9.504-3.879-14.477l9.228-12.957c4.163-5.845.772-14.031-6.304-15.22l-15.687-2.637c-6.021-1.012-9.628-7.26-7.494-12.98l5.56-14.904c2.508-6.723-2.886-13.753-10.029-13.07L391.89 75.19c-6.077.581-11.178-4.521-10.598-10.598l1.513-15.835c.683-7.143-6.347-12.537-13.07-10.029l-8.481 3.164c19.051 29.709 30.099 65.042 30.099 102.956 0 105.479-85.507 190.986-190.986 190.986-37.913 0-73.247-11.048-102.956-30.099l-3.164 8.481c-2.508 6.723 2.886 13.753 10.029 13.07l15.835-1.513c6.077-.581 11.179 4.521 10.598 10.598l-1.513 15.835c-.683 7.143 6.347 12.537 13.07 10.029l14.904-5.56c5.72-2.134 11.968 1.473 12.98 7.494l2.637 15.687c1.189 7.077 9.375 10.467 15.22 6.304l12.957-9.228c4.973-3.542 11.941-1.674 14.477 3.879l6.607 14.47c2.98 6.528 11.765 7.684 16.333 2.15l10.127-12.267c3.887-4.708 11.101-4.708 14.988 0l10.127 12.267c4.568 5.534 13.353 4.377 16.333-2.15l6.607-14.47c2.536-5.554 9.504-7.421 14.477-3.879l12.957 9.228c5.845 4.163 14.031.772 15.22-6.304l2.637-15.687c1.012-6.021 7.26-9.628 12.98-7.494l14.904 5.56c6.723 2.508 13.753-2.886 13.07-10.029l-1.513-15.835c-.581-6.077 4.521-11.179 10.598-10.598l15.835 1.513c7.143.683 12.537-6.347 10.029-13.07l-5.56-14.904c-2.134-5.72 1.473-11.968 7.494-12.98l15.687-2.637c7.077-1.189 10.467-9.375 6.304-15.22l-9.228-12.957c-3.542-4.973-1.674-11.941 3.879-14.477l14.47-6.607c6.524-2.978 7.681-11.762 2.147-16.331z" opacity="1" data-original="#f3d332" class=""></path><circle cx="256" cy="200.482" r="147.724" fill="#e69642" opacity="1" data-original="#e69642" class=""></circle><path fill="#e38523" d="M391.353 144.849c0 105.479-85.507 190.986-190.986 190.986-1.234 0-2.465-.013-3.693-.036 18.159 7.973 38.223 12.408 59.326 12.408 81.586 0 147.724-66.138 147.724-147.724 0-21.103-4.435-41.167-12.408-59.326.024 1.227.037 2.458.037 3.692z" opacity="1" data-original="#e38523" class=""></path><circle cx="256" cy="200.482" r="113.958" fill="#f7e365" opacity="1" data-original="#f7e365" class=""></circle><path fill="#f3d332" d="M318.189 104.981c11.669 17.884 18.458 39.242 18.458 62.189 0 62.937-51.021 113.958-113.958 113.958-22.947 0-44.305-6.788-62.189-18.457 20.337 31.166 55.51 51.77 95.501 51.77 62.937 0 113.958-51.021 113.958-113.958-.001-39.991-20.604-75.165-51.77-95.502z" opacity="1" data-original="#f3d332" class=""></path><path fill="#e69642" d="m250.348 255.628-25.839 11.142c-9.954 4.292-20.872-3.64-19.865-14.433l2.612-28.017a14.273 14.273 0 0 0-3.493-10.751l-18.581-21.131c-7.158-8.14-2.988-20.975 7.588-23.353l27.453-6.174a14.278 14.278 0 0 0 9.146-6.645l14.355-24.202c5.53-9.323 19.025-9.323 24.555 0l14.355 24.202a14.276 14.276 0 0 0 9.146 6.645l27.453 6.174c10.576 2.378 14.746 15.213 7.588 23.353l-18.581 21.131a14.274 14.274 0 0 0-3.493 10.751l2.612 28.017c1.006 10.793-9.911 18.725-19.865 14.433l-25.839-11.142a14.278 14.278 0 0 0-11.307 0z" opacity="1" data-original="#e69642" class=""></path><path fill="#e38523" d="m319.231 169.084-12.497-2.81c-11.126 47.624-52.114 83.764-102.147 87.595.104 9.993 10.445 16.987 19.921 12.901l25.839-11.142a14.273 14.273 0 0 1 11.305 0l25.839 11.142c9.954 4.292 20.871-3.64 19.865-14.433l-2.612-28.018a14.273 14.273 0 0 1 3.493-10.751l18.582-21.131c7.158-8.14 2.988-20.975-7.588-23.353z" opacity="1" data-original="#e38523" class=""></path></g></svg>