<svg xmlns="http://www.w3.org/2000/svg" version="1.1" xmlns:xlink="http://www.w3.org/1999/xlink" width="512" height="512" x="0" y="0" viewBox="0 0 512 512" style="enable-background:new 0 0 512 512" xml:space="preserve" class=""><g><path fill="#fff0ad" d="M222.716 0C149.307 0 89.585 59.723 89.585 133.132c0 2.921.105 5.818.291 8.693h15.029c-.21-2.871-.321-5.77-.321-8.693C104.585 67.994 157.578 15 222.716 15s118.131 52.994 118.131 118.132c0 1.885-.045 3.785-.132 5.646a7.5 7.5 0 0 0 7.497 7.854 7.5 7.5 0 0 0 7.485-7.146c.1-2.097.149-4.234.149-6.354C355.848 59.723 296.125 0 222.716 0z" opacity="1" data-original="#fff0ad"></path><g fill="#ffe177"><path d="M143.625 360.243a9.02 9.02 0 0 1 6.641-6.641l2.102-2.102v-.156c-4.962 0-9-4.037-9-9v-32.88c0-4.963 4.038-9 9-9v-2c-4.962 0-9-4.037-9-9v-32.88c0-4.963 4.038-9 9-9h18.179v-1c5.523 0 10-4.477 10-10v-32.542c-22.068-13.173-37.496-36.343-39.993-63.217H29.849c-5.523 0-10 4.477-10 10v32.88c0 5.523 4.477 10 10 10-5.523 0-10 4.477-10 10v32.88c0 5.523 4.477 10 10 10-5.523 0-10 4.477-10 10v32.88c0 5.523 4.477 10 10 10-5.523 0-10 4.477-10 10v32.88c0 5.523 4.477 10 10 10-5.523 0-10 4.477-10 10v32.88c0 5.523 4.477 10 10 10h68.796zM144.104 398.783l-6.442 6.442h14.705v-1c-3.699 0-6.881-2.245-8.263-5.442z" fill="#ffe177" opacity="1" data-original="#ffe177"></path></g><g fill="#ffe177"><path d="m177.4 365.486-34.047 34.047c1.611 3.363 5.036 5.691 9.014 5.691h140.698c5.523 0 10-4.477 10-10v-29.738zM151.564 352.304l10.367-10.367a13.706 13.706 0 0 1 9.755-4.04h131.379v-28.432c0-5.523-4.477-10-10-10 5.523 0 10-4.477 10-10v-32.88c0-5.523-4.477-10-10-10H152.367c-5.523 0-10 4.477-10 10v32.88c0 5.523 4.477 10 10 10-5.523 0-10 4.477-10 10v32.88c0 5.251 4.051 9.549 9.197 9.959z" fill="#ffe177" opacity="1" data-original="#ffe177"></path></g><path fill="#fff0ad" d="M291.217 245.969a7.502 7.502 0 0 1-4.102-13.785 119.266 119.266 0 0 0 9.776-7.104 7.5 7.5 0 0 1 9.424 11.67 134.175 134.175 0 0 1-11.011 8.003 7.475 7.475 0 0 1-4.087 1.216zm29.283-26.458a7.5 7.5 0 0 1-5.83-12.212 119.096 119.096 0 0 0 7.105-9.778 7.5 7.5 0 0 1 10.378-2.19 7.5 7.5 0 0 1 2.19 10.378 134.208 134.208 0 0 1-8.004 11.015 7.486 7.486 0 0 1-5.839 2.787zm19.68-34.223a7.501 7.501 0 0 1-7.009-10.169 117.517 117.517 0 0 0 3.706-11.494 7.497 7.497 0 0 1 9.177-5.317 7.498 7.498 0 0 1 5.317 9.177 132.32 132.32 0 0 1-4.181 12.969 7.502 7.502 0 0 1-7.01 4.834z" opacity="1" data-original="#fff0ad"></path><path fill="#ffd15b" d="M67.849 395.224v-32.88c0-5.523 4.477-10 10-10h-48c-5.523 0-10 4.477-10 10v32.88c0 5.523 4.477 10 10 10h48c-5.523 0-10-4.477-10-10z" opacity="1" data-original="#ffd15b" class=""></path><path fill="#ffd15b" d="M152.367 351.345c-4.962 0-9-4.037-9-9v-32.88c0-4.963 4.038-9 9-9v-1H29.849c-5.523 0-10 4.477-10 10v32.88c0 5.523 4.477 10 10 10h122.519v-1z" opacity="1" data-original="#ffd15b" class=""></path><path fill="#ffc344" d="M67.849 342.345v-32.88c0-5.523 4.477-10 10-10h-48c-5.523 0-10 4.477-10 10v32.88c0 5.523 4.477 10 10 10h48c-5.523 0-10-4.477-10-10z" opacity="1" data-original="#ffc344"></path><path fill="#ffd15b" d="M67.849 289.465v-32.88c0-5.523 4.477-10 10-10h-48c-5.523 0-10 4.477-10 10v32.88c0 5.523 4.477 10 10 10h48c-5.523 0-10-4.477-10-10z" opacity="1" data-original="#ffd15b" class=""></path><path fill="#ffd15b" d="M166.733 193.705H29.849c-5.523 0-10 4.477-10 10v32.88c0 5.523 4.477 10 10 10h140.698c5.523 0 10-4.477 10-10v-32.542a82.936 82.936 0 0 1-13.814-10.338z" opacity="1" data-original="#ffd15b" class=""></path><path fill="#ffc344" d="M67.849 236.585v-32.88c0-5.523 4.477-10 10-10h-48c-5.523 0-10 4.477-10 10v32.88c0 5.523 4.477 10 10 10h48c-5.523 0-10-4.477-10-10z" opacity="1" data-original="#ffc344"></path><path fill="#ffd15b" d="M67.849 183.705v-32.88c0-5.523 4.477-10 10-10h-48c-5.523 0-10 4.477-10 10v32.88c0 5.523 4.477 10 10 10h48c-5.523 0-10-4.477-10-10z" opacity="1" data-original="#ffd15b" class=""></path><g fill="#ffd15b"><path d="M151.479 352.39a9.994 9.994 0 0 0-9.066 9.067zM190.367 395.224v-29.738H177.4l-34.047 34.047c1.611 3.363 5.036 5.691 9.014 5.691h48c-5.522 0-10-4.477-10-10z" fill="#ffd15b" opacity="1" data-original="#ffd15b" class=""></path></g><path fill="#ffd15b" d="m151.564 352.304 10.367-10.367a13.706 13.706 0 0 1 9.755-4.04h131.379v-28.432c0-5.523-4.477-10-10-10H152.367c-5.523 0-10 4.477-10 10v32.88c0 5.251 4.051 9.549 9.197 9.959z" opacity="1" data-original="#ffd15b" class=""></path><path fill="#ffc344" d="m151.564 352.304 10.367-10.367a13.706 13.706 0 0 1 9.755-4.04h18.681v-28.432c0-5.523 4.477-10 10-10h-48c-5.523 0-10 4.477-10 10v32.88c0 5.251 4.051 9.549 9.197 9.959z" opacity="1" data-original="#ffc344"></path><path fill="#ffd15b" d="M190.367 289.465v-32.88c0-5.523 4.477-10 10-10h-48c-5.523 0-10 4.477-10 10v32.88c0 5.523 4.477 10 10 10h48c-5.522 0-10-4.477-10-10z" opacity="1" data-original="#ffd15b" class=""></path><circle cx="222.716" cy="133.132" r="83.534" fill="#ffe177" opacity="1" data-original="#ffe177"></circle><path fill="#ffd15b" d="M187.182 133.132c0-37.79 25.1-69.703 59.534-80.017a83.514 83.514 0 0 0-24-3.517c-46.134 0-83.534 37.399-83.534 83.534 0 46.134 37.399 83.534 83.534 83.534a83.48 83.48 0 0 0 24-3.517c-34.433-10.314-59.534-42.227-59.534-80.017z" opacity="1" data-original="#ffd15b" class=""></path><path fill="#fe860a" d="M233.522 125.632h-21.611c-4.531 0-8.217-3.686-8.217-8.217v-4.585c0-4.531 3.686-8.217 8.217-8.217h21.611c4.531 0 8.217 3.686 8.217 8.217 0 4.143 3.358 7.5 7.5 7.5s7.5-3.357 7.5-7.5c0-12.802-10.415-23.217-23.216-23.217h-3.306v-6.907c0-4.143-3.358-7.5-7.5-7.5s-7.5 3.357-7.5 7.5v6.907h-3.306c-12.802 0-23.217 10.415-23.217 23.217v4.585c0 12.802 10.415 23.217 23.217 23.217h21.611c4.531 0 8.217 3.686 8.217 8.217v4.585c0 4.531-3.686 8.217-8.217 8.217h-21.611c-4.531 0-8.217-3.686-8.217-8.217 0-4.143-3.358-7.5-7.5-7.5s-7.5 3.357-7.5 7.5c0 12.802 10.415 23.217 23.217 23.217h3.306v6.907c0 4.143 3.358 7.5 7.5 7.5s7.5-3.357 7.5-7.5v-6.907h3.306c12.802 0 23.216-10.415 23.216-23.217v-4.585c-.001-12.802-10.415-23.217-23.217-23.217z" opacity="1" data-original="#fe860a"></path><path fill="#00f2a6" d="M481.237 177.91h-87.976a3.417 3.417 0 0 0-3.414 3.414v22.761a3.417 3.417 0 0 0 3.414 3.414h40.877L304.741 336.896H171.686a14.7 14.7 0 0 0-10.462 4.333L53.726 448.728c10.509 2.025 18.918 10.017 21.543 20.303l102.545-102.545H310.87c3.952 0 7.667-1.539 10.462-4.333l133.731-133.73v40.533a3.417 3.417 0 0 0 3.414 3.414h22.761a3.417 3.417 0 0 0 3.414-3.414v-87.631a3.418 3.418 0 0 0-3.415-3.415z" opacity="1" data-original="#00f2a6"></path><circle cx="48.487" cy="475.862" r="28.638" fill="#fd6930" opacity="1" data-original="#fd6930"></circle><path fill="#fd5426" d="M43.849 475.862c0-11.53 6.818-21.462 16.638-26.002a28.517 28.517 0 0 0-12-2.636c-15.816 0-28.638 12.822-28.638 28.638S32.671 504.5 48.487 504.5c4.286 0 8.349-.948 12-2.636-9.821-4.54-16.638-14.472-16.638-26.002z" opacity="1" data-original="#fd5426"></path><path fill="#fd6930" d="M135.045 498h41.06v-38.441a3 3 0 0 0-3-3h-35.061a3 3 0 0 0-3 3z" opacity="1" data-original="#fd6930"></path><path fill="#fd5426" d="M135.045 498h19v-38.441a3 3 0 0 1 3-3h-19a3 3 0 0 0-3 3z" opacity="1" data-original="#fd5426"></path><path fill="#fd6930" d="M253.242 498v-61.815a3 3 0 0 0-3-3h-35.061a3 3 0 0 0-3 3V498z" opacity="1" data-original="#fd6930"></path><path fill="#fd5426" d="M229.182 498v-61.815a3 3 0 0 1 3-3h-17a3 3 0 0 0-3 3V498z" opacity="1" data-original="#fd5426"></path><path fill="#ffe177" d="M330.379 498v-61.815a3 3 0 0 0-3-3h-35.061a3 3 0 0 0-3 3V498z" opacity="1" data-original="#ffe177"></path><path fill="#ffd15b" d="M306.318 498v-61.815a3 3 0 0 1 3-3h-17a3 3 0 0 0-3 3V498z" opacity="1" data-original="#ffd15b" class=""></path><path fill="#ffe177" d="M407.515 498V361.805a3 3 0 0 0-3-3h-35.061a3 3 0 0 0-3 3V498z" opacity="1" data-original="#ffe177"></path><path fill="#ffd15b" d="M383.455 498V361.805a3 3 0 0 1 3-3h-17a3 3 0 0 0-3 3V498z" opacity="1" data-original="#ffd15b" class=""></path><path fill="#00f2a6" d="M484.651 498V302.799a3 3 0 0 0-3-3H446.59a3 3 0 0 0-3 3V498z" opacity="1" data-original="#00f2a6"></path><path fill="#05e39c" d="M460.591 498V302.799a3 3 0 0 1 3-3h-17a3 3 0 0 0-3 3V498z" opacity="1" data-original="#05e39c"></path><path fill="#8ac9fe" d="M484.651 512H135.045c-4.142 0-7.5-3.357-7.5-7.5s3.358-7.5 7.5-7.5h349.606c4.143 0 7.5 3.357 7.5 7.5s-3.357 7.5-7.5 7.5z" opacity="1" data-original="#8ac9fe"></path></g></svg>