<svg xmlns="http://www.w3.org/2000/svg" version="1.1" xmlns:xlink="http://www.w3.org/1999/xlink" width="512" height="512" x="0" y="0" viewBox="0 0 682.667 682.667" style="enable-background:new 0 0 512 512" xml:space="preserve" class=""><g><defs><clipPath id="a" clipPathUnits="userSpaceOnUse"><path d="M0 512h512V0H0Z" fill="#07b2ff" opacity="1" data-original="#000000"></path></clipPath></defs><g clip-path="url(#a)" transform="matrix(1.33333 0 0 -1.33333 0 682.667)"><path d="M0 0h-61.489c-13.807 0-25-11.193-25-25v-362c0-13.807 11.193-25 25-25h447c13.806 0 25 11.193 25 25v199.915" style="stroke-width:15;stroke-linecap:round;stroke-linejoin:round;stroke-miterlimit:10;stroke-dasharray:none;stroke-opacity:1" transform="translate(93.99 462)" fill="none" stroke="#07b2ff" stroke-width="15" stroke-linecap="round" stroke-linejoin="round" stroke-miterlimit="10" stroke-dasharray="none" stroke-opacity="" data-original="#000000" class="" opacity="1"></path><path d="M0 0v126.915c0 13.807-11.193 25-25 25h-350.436" style="stroke-width:15;stroke-linecap:round;stroke-linejoin:round;stroke-miterlimit:10;stroke-dasharray:none;stroke-opacity:1" transform="translate(504.5 310.085)" fill="none" stroke="#07b2ff" stroke-width="15" stroke-linecap="round" stroke-linejoin="round" stroke-miterlimit="10" stroke-dasharray="none" stroke-opacity="" data-original="#000000" class="" opacity="1"></path><path d="M0 0c0 8.284-6.716 15-15 15-8.284 0-15-6.716-15-15 0-8.284 6.716-15 15-15C-6.716-15 0-8.284 0 0z" style="stroke-width:15;stroke-linecap:round;stroke-linejoin:round;stroke-miterlimit:10;stroke-dasharray:none;stroke-opacity:1" transform="translate(79.745 414)" fill="none" stroke="#07b2ff" stroke-width="15" stroke-linecap="round" stroke-linejoin="round" stroke-miterlimit="10" stroke-dasharray="none" stroke-opacity="" data-original="#000000" class="" opacity="1"></path><path d="M0 0c0 8.284-6.716 15-15 15-8.284 0-15-6.716-15-15 0-8.284 6.716-15 15-15C-6.716-15 0-8.284 0 0z" style="stroke-width:15;stroke-linecap:round;stroke-linejoin:round;stroke-miterlimit:10;stroke-dasharray:none;stroke-opacity:1" transform="translate(139.745 414)" fill="none" stroke="#07b2ff" stroke-width="15" stroke-linecap="round" stroke-linejoin="round" stroke-miterlimit="10" stroke-dasharray="none" stroke-opacity="" data-original="#000000" class="" opacity="1"></path><path d="M0 0c0 8.284-6.716 15-15 15-8.284 0-15-6.716-15-15 0-8.284 6.716-15 15-15C-6.716-15 0-8.284 0 0z" style="stroke-width:15;stroke-linecap:round;stroke-linejoin:round;stroke-miterlimit:10;stroke-dasharray:none;stroke-opacity:1" transform="translate(199.745 414)" fill="none" stroke="#07b2ff" stroke-width="15" stroke-linecap="round" stroke-linejoin="round" stroke-miterlimit="10" stroke-dasharray="none" stroke-opacity="" data-original="#000000" class="" opacity="1"></path><path d="M0 0h496" style="stroke-width:15;stroke-linecap:round;stroke-linejoin:round;stroke-miterlimit:10;stroke-dasharray:none;stroke-opacity:1" transform="translate(7.5 368.5)" fill="none" stroke="#07b2ff" stroke-width="15" stroke-linecap="round" stroke-linejoin="round" stroke-miterlimit="10" stroke-dasharray="none" stroke-opacity="" data-original="#000000" class="" opacity="1"></path><path d="M0 0c-8.284 0-15 6.716-15 15 0 8.284 6.716 15 15 15h185c8.284 0 15-6.716 15-15 0-8.284-6.716-15-15-15z" style="stroke-width:15;stroke-linecap:round;stroke-linejoin:round;stroke-miterlimit:10;stroke-dasharray:none;stroke-opacity:1" transform="translate(263.5 399)" fill="none" stroke="#07b2ff" stroke-width="15" stroke-linecap="round" stroke-linejoin="round" stroke-miterlimit="10" stroke-dasharray="none" stroke-opacity="" data-original="#000000" class="" opacity="1"></path><path d="M0 0a99.57 99.57 0 0 1 1.41 3.976 10.303 10.303 0 0 0 9.781 7.064h11.112c5.694 0 10.311 4.617 10.311 10.312v29.051c0 5.695-4.617 10.312-10.311 10.312H11.191a10.304 10.304 0 0 0-9.781 7.064 100.915 100.915 0 0 1-5.641 13.609 10.308 10.308 0 0 0 1.912 11.93l7.861 7.861c4.026 4.027 4.026 10.556 0 14.583l-20.543 20.543c-4.027 4.027-10.556 4.027-14.583 0l-7.861-7.861a10.312 10.312 0 0 0-11.93-1.913 100.533 100.533 0 0 1-13.609 5.642 10.304 10.304 0 0 0-7.064 9.782v11.111c0 5.695-4.617 10.311-10.311 10.311h-29.052c-5.695 0-10.313-4.616-10.313-10.311v-11.111c0-4.443-2.846-8.385-7.063-9.782a96.995 96.995 0 0 1-3.152-1.102" style="stroke-width:15;stroke-linecap:round;stroke-linejoin:round;stroke-miterlimit:10;stroke-dasharray:none;stroke-opacity:1" transform="translate(431.886 170.867)" fill="none" stroke="#07b2ff" stroke-width="15" stroke-linecap="round" stroke-linejoin="round" stroke-miterlimit="10" stroke-dasharray="none" stroke-opacity="" data-original="#000000" class="" opacity="1"></path><path d="M0 0c-.428-1.15-.836-2.31-1.223-3.479a10.303 10.303 0 0 0-9.781-7.064h-11.111c-5.696 0-10.312-4.617-10.312-10.312v-29.052c0-5.695 4.616-10.311 10.312-10.311h11.111c4.442 0 8.384-2.847 9.781-7.064a100.857 100.857 0 0 1 5.642-13.61 10.31 10.31 0 0 0-1.913-11.929l-7.861-7.862c-4.027-4.026-4.027-10.555 0-14.583l20.543-20.542c4.027-4.027 10.556-4.027 14.583 0l7.861 7.861a10.311 10.311 0 0 0 11.93 1.912 100.79 100.79 0 0 1 13.609-5.642 10.302 10.302 0 0 0 7.064-9.781v-11.111c0-5.695 4.617-10.312 10.311-10.312h29.052c5.695 0 10.313 4.617 10.313 10.312v11.111c0 4.443 2.846 8.385 7.063 9.781 1.308.433 2.604.892 3.887 1.376" style="stroke-width:15;stroke-linecap:round;stroke-linejoin:round;stroke-miterlimit:10;stroke-dasharray:none;stroke-opacity:1" transform="translate(241.927 242.125)" fill="none" stroke="#07b2ff" stroke-width="15" stroke-linecap="round" stroke-linejoin="round" stroke-miterlimit="10" stroke-dasharray="none" stroke-opacity="" data-original="#000000" class="" opacity="1"></path><path d="M0 0a62.983 62.983 0 0 1-12.565 1.26c-10.85 0-21.056-2.757-29.956-7.609" style="stroke-width:15;stroke-linecap:round;stroke-linejoin:round;stroke-miterlimit:10;stroke-dasharray:none;stroke-opacity:1" transform="translate(349.998 268.586)" fill="none" stroke="#07b2ff" stroke-width="15" stroke-linecap="round" stroke-linejoin="round" stroke-miterlimit="10" stroke-dasharray="none" stroke-opacity="" data-original="#000000" class="" opacity="1"></path><path d="M0 0c4.912 8.941 7.602 18.755 7.602 29.677 0 17.854-7.466 33.965-19.447 45.379" style="stroke-width:15;stroke-linecap:round;stroke-linejoin:round;stroke-miterlimit:10;stroke-dasharray:none;stroke-opacity:1" transform="translate(392.5 177.5)" fill="none" stroke="#07b2ff" stroke-width="15" stroke-linecap="round" stroke-linejoin="round" stroke-miterlimit="10" stroke-dasharray="none" stroke-opacity="" data-original="#000000" class="" opacity="1"></path><path d="M0 0c-4.485-8.635-6.737-18.92-6.737-29.323 0-34.612 28.057-62.67 62.67-62.67 10.424 0 20.419 2.49 29.067 6.993" style="stroke-width:15;stroke-linecap:round;stroke-linejoin:round;stroke-miterlimit:10;stroke-dasharray:none;stroke-opacity:1" transform="translate(281.5 236.5)" fill="none" stroke="#07b2ff" stroke-width="15" stroke-linecap="round" stroke-linejoin="round" stroke-miterlimit="10" stroke-dasharray="none" stroke-opacity="" data-original="#000000" class="" opacity="1"></path><path d="m0 0-2.113 2.114-28.799 28.799c-14.809-5.277-31.982-1.99-43.838 9.866-11.184 11.184-14.746 27.107-10.678 41.306.625 2.184 3.395 2.866 5.001 1.26l11.419-11.419c6.22-6.22 16.305-6.22 22.525 0 6.219 6.22 6.22 16.305 0 22.525l-11.419 11.419c-1.605 1.606-.924 4.376 1.258 5.001 14.145 4.052 29.998.535 41.178-10.548.219-.216.438-.438.653-.661C-3.326 87.769-.279 70.621-5.652 55.938l29.228-29.229L59.694-9.409 79.385-29.1c14.683 5.373 31.831 2.326 43.724-9.16.223-.215.446-.434.661-.653 11.084-11.18 14.6-27.033 10.548-41.178-.625-2.182-3.395-2.864-5.001-1.258L117.898-69.93c-6.219 6.22-16.304 6.22-22.525-.001-6.22-6.219-6.22-16.304 0-22.525l11.419-11.418c1.605-1.605.924-4.376-1.259-5.001-14.2-4.068-30.122-.506-41.306 10.678-11.857 11.856-15.558 29.142-10.282 43.95L35.19-35.19 24.702-24.702" style="stroke-width:15;stroke-linecap:round;stroke-linejoin:round;stroke-miterlimit:10;stroke-dasharray:none;stroke-opacity:1" transform="translate(312.555 205.747)" fill="none" stroke="#07b2ff" stroke-width="15" stroke-linecap="round" stroke-linejoin="round" stroke-miterlimit="10" stroke-dasharray="none" stroke-opacity="" data-original="#000000" class="" opacity="1"></path><path d="M0 0h120" style="stroke-width:15;stroke-linecap:round;stroke-linejoin:round;stroke-miterlimit:10;stroke-dasharray:none;stroke-opacity:1" transform="translate(49.5 251.745)" fill="none" stroke="#07b2ff" stroke-width="15" stroke-linecap="round" stroke-linejoin="round" stroke-miterlimit="10" stroke-dasharray="none" stroke-opacity="" data-original="#000000" class="" opacity="1"></path><path d="M0 0h52.373" style="stroke-width:15;stroke-linecap:round;stroke-linejoin:round;stroke-miterlimit:10;stroke-dasharray:none;stroke-opacity:1" transform="translate(117.127 221.745)" fill="none" stroke="#07b2ff" stroke-width="15" stroke-linecap="round" stroke-linejoin="round" stroke-miterlimit="10" stroke-dasharray="none" stroke-opacity="" data-original="#000000" class="" opacity="1"></path><path d="M0 0h37.627" style="stroke-width:15;stroke-linecap:round;stroke-linejoin:round;stroke-miterlimit:10;stroke-dasharray:none;stroke-opacity:1" transform="translate(49.5 221.745)" fill="none" stroke="#07b2ff" stroke-width="15" stroke-linecap="round" stroke-linejoin="round" stroke-miterlimit="10" stroke-dasharray="none" stroke-opacity="" data-original="#000000" class="" opacity="1"></path><path d="M0 0h120" style="stroke-width:15;stroke-linecap:round;stroke-linejoin:round;stroke-miterlimit:10;stroke-dasharray:none;stroke-opacity:1" transform="translate(49.5 191.745)" fill="none" stroke="#07b2ff" stroke-width="15" stroke-linecap="round" stroke-linejoin="round" stroke-miterlimit="10" stroke-dasharray="none" stroke-opacity="" data-original="#000000" class="" opacity="1"></path><path d="M0 0h71.186" style="stroke-width:15;stroke-linecap:round;stroke-linejoin:round;stroke-miterlimit:10;stroke-dasharray:none;stroke-opacity:1" transform="translate(98.314 161.745)" fill="none" stroke="#07b2ff" stroke-width="15" stroke-linecap="round" stroke-linejoin="round" stroke-miterlimit="10" stroke-dasharray="none" stroke-opacity="" data-original="#000000" class="" opacity="1"></path><path d="M0 0h18.814" style="stroke-width:15;stroke-linecap:round;stroke-linejoin:round;stroke-miterlimit:10;stroke-dasharray:none;stroke-opacity:1" transform="translate(49.5 161.745)" fill="none" stroke="#07b2ff" stroke-width="15" stroke-linecap="round" stroke-linejoin="round" stroke-miterlimit="10" stroke-dasharray="none" stroke-opacity="" data-original="#000000" class="" opacity="1"></path></g></g></svg>