<svg xmlns="http://www.w3.org/2000/svg" version="1.1" xmlns:xlink="http://www.w3.org/1999/xlink" width="512" height="512" x="0" y="0" viewBox="0 0 512 512" style="enable-background:new 0 0 512 512" xml:space="preserve" class=""><g><path d="M327.7 186.794c-.59.049-1.18.168-1.756.36l-17.836 5.945a7.442 7.442 0 0 1-5.645-.373 104.705 104.705 0 0 0-12.621-5.233 7.438 7.438 0 0 1-4.249-3.726l-8.405-16.809a7.499 7.499 0 0 0-6.708-4.146h-28.96a7.499 7.499 0 0 0-6.708 4.146l-8.405 16.809a7.435 7.435 0 0 1-4.249 3.726 104.248 104.248 0 0 0-12.621 5.233 7.442 7.442 0 0 1-5.645.373l-17.836-5.945a7.5 7.5 0 0 0-7.675 1.812l-20.478 20.478a7.5 7.5 0 0 0-1.812 7.675l5.945 17.836a7.437 7.437 0 0 1-.373 5.645 104.705 104.705 0 0 0-5.233 12.621 7.438 7.438 0 0 1-3.726 4.249l-16.809 8.405a7.499 7.499 0 0 0-4.146 6.708v28.96a7.499 7.499 0 0 0 4.146 6.708l16.809 8.405a7.435 7.435 0 0 1 3.726 4.249 104.248 104.248 0 0 0 5.233 12.621 7.442 7.442 0 0 1 .373 5.645l-5.945 17.836a7.5 7.5 0 0 0 1.812 7.675l20.478 20.478a7.5 7.5 0 0 0 7.675 1.812l17.836-5.945a7.437 7.437 0 0 1 5.645.373 104.705 104.705 0 0 0 12.621 5.233 7.438 7.438 0 0 1 4.249 3.726l8.405 16.809a7.499 7.499 0 0 0 6.708 4.146h28.96a7.499 7.499 0 0 0 6.708-4.146l8.405-16.809a7.435 7.435 0 0 1 4.249-3.726 104.248 104.248 0 0 0 12.621-5.233 7.442 7.442 0 0 1 5.645-.373l17.836 5.945a7.5 7.5 0 0 0 7.675-1.812l20.478-20.478a7.5 7.5 0 0 0 1.812-7.675l-5.945-17.836a7.437 7.437 0 0 1 .373-5.645 104.705 104.705 0 0 0 5.233-12.621 7.438 7.438 0 0 1 3.726-4.249l16.809-8.405a7.499 7.499 0 0 0 4.146-6.708v-28.96a7.499 7.499 0 0 0-4.146-6.708l-16.809-8.405a7.435 7.435 0 0 1-3.726-4.249 104.248 104.248 0 0 0-5.233-12.621 7.442 7.442 0 0 1-.373-5.645l5.945-17.836a7.5 7.5 0 0 0-1.812-7.675" style="stroke-width:15;stroke-linecap:round;stroke-linejoin:round;stroke-miterlimit:10;" fill="none" stroke="#07b2ff" stroke-width="15" stroke-linecap="round" stroke-linejoin="round" stroke-miterlimit="10" data-original="#000000" class="" opacity="1"></path><path d="m209.406 256-31.062 31.062 31.062 31.063M302.594 256l31.062 31.062-31.062 31.063M271.531 256l-31.062 62.125" style="stroke-width:15;stroke-linecap:round;stroke-linejoin:round;stroke-miterlimit:10;" fill="none" stroke="#07b2ff" stroke-width="15" stroke-linecap="round" stroke-linejoin="round" stroke-miterlimit="10" data-original="#000000" class="" opacity="1"></path><path d="M126.366 457.906H479.5c13.807 0 25-11.193 25-25V116.219M7.5 116.219v316.688c0 13.807 11.193 25 25 25h58.866M55.653 54.094H32.5c-13.807 0-25 11.193-25 25v37.125h497V79.094c0-13.807-11.193-25-25-25H90.653M473.438 85.156h0M442.375 85.156h0M411.312 85.156h0" style="stroke-width:15;stroke-linecap:round;stroke-linejoin:round;stroke-miterlimit:10;" fill="none" stroke="#07b2ff" stroke-width="15" stroke-linecap="round" stroke-linejoin="round" stroke-miterlimit="10" data-original="#000000" class="" opacity="1"></path></g></svg>